<?xml version="1.0" standalone="no"?>
<!DOCTYPE svg PUBLIC "-//W3C//DTD SVG 20010904//EN"
 "http://www.w3.org/TR/2001/REC-SVG-20010904/DTD/svg10.dtd">
<svg version="1.0" xmlns="http://www.w3.org/2000/svg"
 width="996.000000pt" height="996.000000pt" viewBox="0 0 996.000000 996.000000"
 preserveAspectRatio="xMidYMid meet">
<metadata>
Created by potrace 1.11, written by Peter Selinger 2001-2013
</metadata>
<g transform="translate(0.000000,996.000000) scale(0.100000,-0.100000)"
fill="#000000" stroke="none">
<path d="M4736 9759 c-132 -76 -241 -139 -243 -139 -2 0 -20 -11 -41 -24 -33
-21 -98 -59 -257 -151 -27 -16 -53 -28 -57 -27 -5 1 -8 -3 -8 -8 0 -6 -5 -10
-10 -10 -6 0 -27 -11 -48 -23 -58 -37 -186 -111 -192 -111 -3 0 -11 -6 -18
-13 -7 -7 -20 -13 -28 -13 -8 0 -14 -3 -14 -7 0 -5 -10 -13 -23 -19 -50 -24
-122 -68 -125 -76 -2 -4 -9 -8 -14 -8 -6 0 -54 -25 -105 -55 -52 -30 -98 -55
-104 -55 -5 0 -9 -4 -9 -8 0 -4 -12 -13 -27 -20 -16 -7 -46 -23 -68 -36 -22
-13 -89 -51 -150 -86 -60 -35 -118 -70 -127 -78 -10 -8 -18 -11 -18 -6 0 5 -4
4 -8 -1 -4 -6 -20 -17 -37 -25 -16 -8 -32 -17 -35 -21 -10 -11 -169 -99 -180
-99 -5 0 -10 -4 -10 -9 0 -5 -8 -11 -17 -14 -10 -4 -36 -17 -58 -31 -22 -14
-51 -31 -65 -39 -98 -54 -126 -71 -137 -79 -7 -5 -27 -17 -45 -27 -18 -10 -51
-28 -73 -40 -84 -49 -201 -117 -220 -128 -11 -7 -36 -20 -55 -29 -19 -9 -37
-20 -40 -23 -3 -4 -32 -22 -65 -40 -33 -18 -64 -36 -70 -41 -5 -4 -30 -19 -55
-32 -25 -14 -62 -35 -82 -47 -42 -23 -93 -52 -129 -73 -13 -7 -26 -15 -29 -18
-3 -3 -19 -12 -35 -21 -17 -9 -70 -39 -119 -67 -49 -29 -93 -52 -97 -52 -5 0
-9 -4 -9 -10 0 -5 -4 -10 -9 -10 -5 0 -80 -41 -168 -92 -87 -50 -171 -99 -188
-108 -16 -10 -55 -32 -85 -50 -30 -18 -65 -36 -77 -41 -13 -5 -23 -13 -23 -19
0 -6 -4 -9 -9 -6 -5 4 -11 3 -13 -1 -1 -5 -21 -18 -43 -30 l-40 -22 0 -2461
-1 -2461 106 -62 c58 -34 125 -72 150 -86 25 -13 47 -28 48 -32 2 -5 8 -7 13
-3 5 3 9 0 9 -5 0 -6 9 -11 19 -11 11 0 21 -4 23 -8 1 -5 89 -58 193 -117 105
-60 192 -113 193 -117 2 -4 9 -8 14 -8 6 0 52 -24 102 -54 50 -30 118 -69 150
-87 33 -17 75 -43 94 -55 19 -13 39 -24 44 -24 5 0 29 -13 53 -30 24 -16 46
-30 48 -30 4 0 179 -100 227 -130 53 -33 194 -110 201 -110 5 0 9 -4 9 -9 0
-5 8 -11 18 -14 9 -4 37 -18 62 -33 42 -25 68 -40 131 -76 13 -7 26 -15 29
-18 3 -3 16 -11 30 -18 14 -7 48 -26 75 -42 28 -16 57 -33 65 -36 8 -4 22 -12
30 -19 8 -7 40 -26 70 -42 145 -79 294 -167 302 -178 4 -5 8 -6 8 -1 0 5 8 2
18 -6 9 -8 42 -28 72 -44 30 -16 57 -31 60 -34 6 -6 31 -20 110 -63 30 -17 57
-33 60 -36 3 -3 26 -17 53 -31 26 -13 47 -29 47 -34 0 -5 3 -7 6 -3 3 3 24 -5
46 -19 35 -22 84 -51 153 -88 11 -6 22 -14 25 -17 3 -3 19 -12 35 -21 17 -8
46 -24 66 -35 20 -12 47 -27 60 -35 13 -7 26 -15 29 -18 6 -6 84 -49 117 -64
13 -6 23 -14 23 -18 0 -5 4 -8 9 -8 5 0 55 -27 111 -60 56 -33 103 -60 105
-60 2 0 34 -19 71 -42 90 -54 162 -95 197 -110 15 -7 27 -16 27 -20 0 -4 4 -8
10 -8 5 0 39 -18 75 -40 36 -22 70 -40 75 -40 6 0 10 -5 10 -10 0 -6 3 -9 8
-8 4 1 20 -6 35 -17 21 -14 33 -16 45 -9 19 12 464 268 520 300 20 11 104 60
186 107 82 48 151 87 152 87 2 0 27 15 56 32 30 18 66 40 81 48 24 13 316 182
431 249 23 13 55 32 71 41 88 51 142 81 155 89 94 57 263 151 271 151 5 0 9 4
9 9 0 5 15 14 33 22 17 7 34 15 37 18 9 10 44 31 63 37 9 4 17 11 17 17 0 6 3
8 6 4 4 -3 23 5 43 18 19 14 41 25 48 25 7 0 13 5 13 10 0 6 4 10 9 10 5 0 39
18 75 40 36 22 70 40 75 40 5 0 11 3 13 8 2 4 19 15 38 26 97 52 265 151 268
158 2 4 8 8 12 8 8 0 74 35 170 92 19 11 125 72 235 135 110 64 211 123 225
131 14 9 27 15 30 15 3 0 18 9 35 21 16 11 46 30 66 41 36 20 450 258 479 275
105 64 169 100 178 100 5 0 15 7 22 15 7 8 16 13 20 10 5 -3 10 -1 12 5 1 5
23 20 48 33 l45 24 1 2454 c1 1350 -2 2460 -6 2467 -7 15 -18 22 -107 67 -32
17 -60 32 -63 35 -6 7 -66 42 -140 83 -30 17 -57 33 -60 36 -5 6 -79 48 -117
65 -13 6 -23 14 -23 19 0 4 -4 7 -9 7 -6 0 -64 32 -130 70 -66 39 -124 70
-130 70 -6 0 -11 5 -11 10 0 6 -6 10 -14 10 -8 0 -16 3 -18 8 -1 4 -19 15 -38
24 -19 10 -42 22 -50 28 -44 28 -170 100 -175 100 -4 0 -26 14 -50 30 -24 17
-46 30 -49 30 -4 0 -39 19 -79 43 -147 88 -242 142 -246 139 -2 -2 -7 0 -10 6
-5 8 -103 66 -169 101 -15 8 -29 17 -32 20 -3 4 -24 15 -47 25 -24 11 -43 23
-43 28 0 4 -4 8 -9 8 -5 0 -45 21 -88 47 -43 25 -96 56 -118 68 -22 11 -59 33
-82 48 -24 15 -45 27 -48 27 -2 0 -34 18 -70 40 -36 22 -70 40 -75 40 -6 0
-10 5 -10 10 0 6 -5 10 -11 10 -6 0 -38 16 -70 36 -32 19 -61 35 -63 35 -3 0
-29 15 -58 34 -29 19 -58 35 -65 35 -7 0 -13 5 -13 10 0 6 -5 10 -10 10 -6 0
-40 18 -76 40 -36 22 -68 40 -70 40 -2 0 -33 18 -69 40 -36 22 -70 40 -75 40
-6 0 -10 5 -10 10 0 6 -6 10 -13 10 -7 0 -28 10 -47 23 -19 13 -60 37 -90 53
-30 16 -57 32 -60 35 -3 3 -32 20 -65 38 -33 18 -117 66 -187 107 -69 41 -131
74 -136 74 -6 0 -12 4 -14 8 -3 8 -139 88 -195 116 -13 6 -23 14 -23 19 0 4
-5 7 -11 7 -7 0 -49 23 -95 50 -46 28 -88 50 -94 50 -5 0 -10 3 -10 8 0 4 -10
12 -23 18 -60 29 -142 77 -145 85 -2 5 -8 9 -14 9 -6 0 -32 13 -57 29 -26 15
-56 31 -67 34 -13 4 -96 -39 -258 -134z"/>
</g>
</svg>
